<?xml version="1.0" encoding="utf-8"?>
<!-- Generator: Adobe Illustrator 25.4.1, SVG Export Plug-In . SVG Version: 6.00 Build 0)  -->
<svg version="1.1" id="Layer_1" xmlns="http://www.w3.org/2000/svg" xmlns:xlink="http://www.w3.org/1999/xlink" x="0px" y="0px"
	 viewBox="0 0 175 110" style="enable-background:new 0 0 175 110;" xml:space="preserve">
<style type="text/css">
	.st0{fill:none;stroke:#FFFFFF;stroke-width:3;}
	.st1{fill:#D9D9D9;filter:url(#Adobe_OpacityMaskFilter);}
	.st2{mask:url(#mask0_2469_11567_00000106136304030333830800000012354570707398765755_);}
	.st3{fill:none;stroke:#000000;stroke-width:12;}
	.st4{fill:#FFFFFF;stroke:#000000;stroke-width:4;}
</style>
<path class="st0" d="M3.1,58.2c0.1-0.1,0.3-0.2,0.4-0.4c1.1-1,2.7-2.3,4.9-4c4.2-3.3,10.4-7.6,17.9-12c15.2-8.8,36-17.4,59-17.4
	c23,0,43.8,8.7,59,17.4c7.6,4.4,13.7,8.7,17.9,12c2.1,1.6,3.8,3,4.9,4c0.2,0.1,0.3,0.3,0.4,0.4c-0.1,0.1-0.3,0.2-0.4,0.4
	c-1.1,1-2.7,2.3-4.9,4c-4.2,3.3-10.4,7.6-17.9,12c-15.2,8.8-36,17.4-59,17.4c-23,0-43.8-8.7-59-17.4c-7.6-4.4-13.7-8.7-17.9-12
	c-2.1-1.6-3.8-3-4.9-4C3.3,58.4,3.2,58.3,3.1,58.2z"/>
<defs>
	<filter id="Adobe_OpacityMaskFilter" filterUnits="userSpaceOnUse" x="46" y="16.4" width="77.1" height="77.1">
		<feColorMatrix  type="matrix" values="1 0 0 0 0  0 1 0 0 0  0 0 1 0 0  0 0 0 1 0"/>
	</filter>
</defs>
<mask maskUnits="userSpaceOnUse" x="46" y="16.4" width="77.1" height="77.1" id="mask0_2469_11567_00000106136304030333830800000012354570707398765755_">
	<path class="st1" d="M169.8,58.2c0,0-37.8,35.3-84.5,35.3c-46.7,0-84.5-35.3-84.5-35.3s37.8-35.3,84.5-35.3
		C131.9,22.9,169.8,58.2,169.8,58.2z"/>
</mask>
<g class="st2">
	<circle class="st0" cx="84.5" cy="54.9" r="37"/>
	<circle class="st0" cx="84.5" cy="54.9" r="13.4"/>
</g>
<line class="st3" x1="30.9" y1="104.2" x2="138.7" y2="4.9"/>
<line class="st0" x1="30.1" y1="104.4" x2="138" y2="5.1"/>
<path class="st4" d="M137.9,59.8c2.3-4,8.1-4,10.4,0l20.9,36.2c2.3,4-0.6,9-5.2,9h-41.8c-4.6,0-7.5-5-5.2-9L137.9,59.8z"/>
<path d="M141.6,88l-0.3-12.3h4.1L145,88H141.6z M143.3,94.4c-1.4,0-2.3-0.8-2.3-2.1c0-1.3,0.9-2.1,2.3-2.1c1.4,0,2.3,0.8,2.3,2.1
	C145.6,93.6,144.7,94.4,143.3,94.4z"/>
</svg>
