<svg id="Layer_1" data-name="Layer 1" xmlns="http://www.w3.org/2000/svg" width="274" height="61" viewBox="0 0 274 61">
  <rect width="274" height="61" fill="#1a1a1a"/>
  <path d="M23.24,25c-.59,0-1-.28-1-.71h.44a.57.57,0,0,0,.61.36c.36,0,.61-.17.61-.41h0c0-.18-.13-.31-.46-.38l-.41-.1c-.49-.12-.71-.33-.71-.71h0c0-.44.42-.77,1-.77a.89.89,0,0,1,1,.7h-.42a.54.54,0,0,0-.58-.35c-.31,0-.54.16-.54.4h0c0,.18.13.29.44.37l.41.09c.5.12.73.34.73.72h0C24.29,24.66,23.84,25,23.24,25Zm2.09-3.18a.3.3,0,1,1,.29-.3A.29.29,0,0,1,25.33,21.8Zm-.22,3.14V22.31h.43v2.63Zm2.46.92c-.63,0-1-.28-1.1-.71h.44c.05.2.28.34.66.34s.76-.22.76-.61v-.53h0a.92.92,0,0,1-.83.45,1.12,1.12,0,0,1-1.1-1.26h0a1.13,1.13,0,0,1,1.11-1.27.89.89,0,0,1,.82.48h0v-.43h.43V24.9C28.75,25.49,28.29,25.86,27.57,25.86Zm0-1.44a.79.79,0,0,0,.79-.88h0a.8.8,0,0,0-.79-.89c-.48,0-.76.37-.76.89h0C26.79,24.06,27.07,24.42,27.55,24.42Zm2.14.52V22.31h.42v.39h0a.77.77,0,0,1,.77-.44.86.86,0,0,1,.92,1v1.71h-.43v-1.6c0-.48-.19-.7-.61-.7a.67.67,0,0,0-.69.74v1.56Zm3.79,0a.8.8,0,0,1-.88-.78h0c0-.47.35-.74,1-.78l.75-.05v-.23c0-.33-.19-.5-.59-.5s-.52.11-.59.32h-.42a.94.94,0,0,1,1-.69c.64,0,1,.33,1,.88v1.8h-.43v-.39h0A.86.86,0,0,1,33.48,25ZM33,24.19c0,.27.23.43.54.43a.69.69,0,0,0,.74-.66v-.24l-.7,0c-.4,0-.58.17-.58.43ZM36.6,25c-.54,0-.77-.2-.77-.71V22.66h-.41v-.35h.41v-.69h.44v.69h.58v.35h-.58v1.49c0,.31.11.43.38.43h.2v.36Zm1.91,0c-.6,0-.9-.35-.9-1v-1.7H38v1.6c0,.47.17.7.59.7a.66.66,0,0,0,.71-.75V22.31h.43v2.63h-.43v-.4h0A.79.79,0,0,1,38.51,25Zm2.19,0V22.31h.43v.39h0a.68.68,0,0,1,.7-.44l.21,0v.41a1.15,1.15,0,0,0-.26,0,.64.64,0,0,0-.69.65v1.63Zm3.06,0a1.19,1.19,0,0,1-1.21-1.35h0a1.21,1.21,0,0,1,1.18-1.37c.72,0,1.15.53,1.15,1.32v.16H43c0,.55.31.87.78.87a.67.67,0,0,0,.64-.33v0h.43v0A1,1,0,0,1,43.76,25Zm0-2.34a.74.74,0,0,0-.74.76h1.46C44.4,22.88,44.12,22.64,43.73,22.64Z" fill="#767676"/>
  <path d="M39.79,41c-.58,0-1-.28-1-.71h.43a.58.58,0,0,0,.62.36c.35,0,.6-.17.6-.41h0c0-.18-.13-.31-.45-.38l-.41-.1c-.5-.12-.72-.33-.72-.71h0c0-.44.42-.77,1-.77a.9.9,0,0,1,1,.7h-.42a.55.55,0,0,0-.58-.35c-.31,0-.54.16-.54.4h0c0,.18.13.29.44.37l.4.09c.5.12.74.34.74.72h0C40.85,40.66,40.39,41,39.79,41Zm2.94,0a1.21,1.21,0,0,1-1.2-1.37h0a1.2,1.2,0,0,1,1.2-1.35,1,1,0,0,1,1.1.84h-.42a.64.64,0,0,0-.68-.46c-.47,0-.77.38-.77,1h0c0,.61.3,1,.77,1a.65.65,0,0,0,.68-.45v0h.42v0A1,1,0,0,1,42.73,41Zm1.88,0V38.31H45v.39h0a.68.68,0,0,1,.7-.44l.22,0v.41a1.18,1.18,0,0,0-.27,0,.64.64,0,0,0-.69.65v1.63Zm2.28-3.14a.3.3,0,1,1,0-.59.3.3,0,0,1,0,.59Zm-.22,3.14V38.31h.42v2.63Zm1.38.88V38.31h.42v.42h0a.88.88,0,0,1,.82-.47c.67,0,1.1.54,1.1,1.36h0c0,.83-.43,1.36-1.1,1.36a.9.9,0,0,1-.82-.46h0v1.3Zm1.18-1.21c.48,0,.77-.37.77-1h0c0-.61-.29-1-.77-1s-.77.37-.77,1h0C48.46,40.23,48.75,40.61,49.23,40.61Zm3,.35c-.54,0-.77-.2-.77-.71V38.66H51v-.35h.41v-.69h.44v.69h.58v.35h-.58v1.49c0,.31.11.43.38.43h.2v.36A1,1,0,0,1,52.18,41Zm2.24.06c-.77,0-1.27-.41-1.32-1v0h.44v0c0,.35.4.57.91.57s.82-.24.82-.6h0c0-.3-.2-.5-.68-.6l-.39-.09c-.71-.16-1-.48-1-1h0c0-.59.51-1,1.24-1a1.13,1.13,0,0,1,1.23.94v0h-.44v0a.71.71,0,0,0-.8-.53c-.44,0-.78.21-.78.58h0c0,.28.19.47.67.57l.39.09c.73.17,1,.46,1,1h0C55.72,40.61,55.21,41,54.42,41Zm2.36-3.22a.3.3,0,1,1,0-.59.3.3,0,0,1,0,.59Zm-.22,3.14V38.31H57v2.63Zm2.46.92c-.63,0-1-.28-1.1-.71h.44c0,.2.28.34.66.34s.75-.22.75-.61v-.53h0a.9.9,0,0,1-.82.45,1.12,1.12,0,0,1-1.1-1.26h0a1.13,1.13,0,0,1,1.11-1.27.89.89,0,0,1,.82.48h0v-.43h.42V40.9C60.19,41.49,59.74,41.86,59,41.86Zm0-1.44a.78.78,0,0,0,.78-.88h0a.79.79,0,0,0-.78-.89c-.49,0-.76.37-.76.89h0C58.24,40.06,58.51,40.42,59,40.42Z" fill="#767676"/>
  <path d="M156.91,41c-.59,0-1-.28-1-.71h.44a.57.57,0,0,0,.61.36c.36,0,.61-.17.61-.41h0c0-.18-.14-.31-.46-.38l-.41-.1c-.49-.12-.71-.33-.71-.71h0c0-.44.42-.77,1-.77a.89.89,0,0,1,1,.7h-.42a.54.54,0,0,0-.58-.35c-.31,0-.54.16-.54.4h0c0,.18.13.29.44.37l.41.09c.49.12.73.34.73.72h0C158,40.66,157.51,41,156.91,41Zm2.94,0a1.21,1.21,0,0,1-1.21-1.37h0a1.2,1.2,0,0,1,1.21-1.35,1,1,0,0,1,1.1.84h-.42a.65.65,0,0,0-.68-.46c-.48,0-.77.38-.77,1h0c0,.61.3,1,.77,1a.63.63,0,0,0,.67-.45v0H161v0A1,1,0,0,1,159.85,41Zm1.87,0V38.31h.42v.39h0a.69.69,0,0,1,.71-.44l.21,0v.41a1.15,1.15,0,0,0-.26,0,.64.64,0,0,0-.7.65v1.63ZM164,37.8a.3.3,0,1,1,.29-.3A.29.29,0,0,1,164,37.8Zm-.22,3.14V38.31h.43v2.63Zm1.38.88V38.31h.42v.42h0a.89.89,0,0,1,.82-.47c.67,0,1.11.54,1.11,1.36h0c0,.83-.44,1.36-1.11,1.36a.91.91,0,0,1-.82-.46h0v1.3Zm1.19-1.21c.48,0,.76-.37.76-1h0c0-.61-.28-1-.76-1s-.78.37-.78,1h0C165.57,40.23,165.87,40.61,166.35,40.61Zm3,.35c-.55,0-.77-.2-.77-.71V38.66h-.42v-.35h.42v-.69H169v.69h.57v.35H169v1.49c0,.31.1.43.38.43h.19v.36A1,1,0,0,1,169.3,41Zm1.08,0V37.41h1.33a1.08,1.08,0,0,1,1.13,1.13h0a1.09,1.09,0,0,1-1.13,1.14h-.89v1.26Zm1.22-3.14h-.78v1.49h.78a.7.7,0,0,0,.79-.74h0A.7.7,0,0,0,171.6,37.8ZM174.54,41a.85.85,0,0,1-.91-1v-1.7h.43v1.6c0,.47.17.7.59.7a.67.67,0,0,0,.71-.75V38.31h.42v2.63h-.42v-.4h0A.8.8,0,0,1,174.54,41Zm3.5,0a.92.92,0,0,1-.83-.46h0v.42h-.43V37.26h.43v1.46h0a.92.92,0,0,1,.83-.46c.66,0,1.1.53,1.1,1.36h0C179.14,40.44,178.7,41,178,41Zm-.1-.37c.48,0,.76-.37.76-1h0c0-.61-.28-1-.76-1s-.77.37-.77,1h0C177.17,40.23,177.46,40.61,177.94,40.61Zm2.06.33V37.41h.44v1.72h0L182,37.41h.55l-1.4,1.53,1.53,2h-.56l-1.28-1.7-.42.47v1.23Zm4.27,0a1.18,1.18,0,0,1-1.2-1.35h0a1.21,1.21,0,0,1,1.18-1.37,1.16,1.16,0,0,1,1.15,1.32v.16h-1.9c0,.55.31.87.78.87a.68.68,0,0,0,.65-.33v0h.42v0A1.05,1.05,0,0,1,184.27,41Zm0-2.34a.73.73,0,0,0-.73.76H185C184.92,38.88,184.63,38.64,184.24,38.64Zm2.14,3.22h-.19V41.5h.18c.24,0,.39-.11.48-.41l.05-.16-1-2.63h.45l.72,2.16h0l.72-2.16h.45l-1,2.79C187.06,41.69,186.85,41.86,186.38,41.86Z" fill="#767676"/>
  <path d="M53.33,25.82V22.31h.43v.42h0a.88.88,0,0,1,.82-.47c.66,0,1.1.54,1.1,1.36h0c0,.83-.44,1.36-1.1,1.36a.89.89,0,0,1-.82-.46h0v1.3Zm1.19-1.21c.48,0,.76-.37.76-1h0c0-.61-.28-1-.76-1s-.77.37-.77,1h0C53.75,24.23,54,24.61,54.52,24.61Zm2.89.37c-.59,0-.9-.35-.9-1v-1.7h.42v1.6c0,.47.17.7.59.7a.67.67,0,0,0,.72-.75V22.31h.42v2.63h-.42v-.4h0A.8.8,0,0,1,57.41,25Zm3.5,0a.91.91,0,0,1-.82-.46h0v.42h-.42V21.26h.42v1.46h0a.91.91,0,0,1,.82-.46c.67,0,1.11.53,1.11,1.36h0C62,24.44,61.58,25,60.91,25Zm-.1-.37c.49,0,.77-.37.77-1h0c0-.61-.28-1-.77-1s-.77.37-.77,1h0C60,24.23,60.34,24.61,60.81,24.61Zm2,.33V21.26h.42v3.68Zm1.61-3.14a.3.3,0,1,1,.3-.3A.29.29,0,0,1,64.46,21.8Zm-.21,3.14V22.31h.42v2.63Zm2.45,0a1.21,1.21,0,0,1-1.21-1.37h0a1.2,1.2,0,0,1,1.21-1.35,1,1,0,0,1,1.1.84h-.42a.66.66,0,0,0-.68-.46c-.47,0-.77.38-.77,1h0c0,.61.3,1,.77,1a.65.65,0,0,0,.68-.45v0h.42v0A1,1,0,0,1,66.7,25Zm3.45,0V21.26h.43v2.2h0l1.13-1.15h.52l-1.15,1.1,1.23,1.53h-.54l-1-1.24-.24.24v1ZM74,25a1.19,1.19,0,0,1-1.21-1.35h0a1.21,1.21,0,0,1,1.18-1.37,1.16,1.16,0,0,1,1.15,1.32v.16h-1.9c0,.55.32.87.79.87a.67.67,0,0,0,.64-.33v0H75v0A1,1,0,0,1,74,25Zm0-2.34a.74.74,0,0,0-.74.76h1.46C74.59,22.88,74.3,22.64,73.92,22.64Zm2.13,3.22h-.18V25.5H76c.24,0,.39-.11.48-.41l0-.16-1-2.63h.45l.73,2.16h0l.72-2.16H78L77,25.1C76.74,25.69,76.52,25.86,76.05,25.86Z" fill="#767676"/>
  <path d="M144.06,24.94V21.26h.42V22.7h0a.77.77,0,0,1,.77-.44.86.86,0,0,1,.92,1v1.71h-.42v-1.6c0-.48-.2-.7-.62-.7a.67.67,0,0,0-.69.74v1.56Zm3.79,0a.8.8,0,0,1-.88-.78h0c0-.47.35-.74,1-.78l.76-.05v-.23c0-.33-.2-.5-.59-.5s-.53.11-.6.32h-.42a.94.94,0,0,1,1-.69c.64,0,1,.33,1,.88v1.8h-.42v-.39h0A.88.88,0,0,1,147.85,25Zm-.44-.79c0,.27.22.43.53.43a.7.7,0,0,0,.75-.66v-.24l-.71,0c-.4,0-.57.17-.57.43Zm3.53.79c-.58,0-1-.28-1-.71h.44a.58.58,0,0,0,.62.36c.35,0,.6-.17.6-.41h0c0-.18-.13-.31-.46-.38l-.41-.1c-.49-.12-.71-.33-.71-.71h0c0-.44.42-.77,1-.77a.89.89,0,0,1,1,.7h-.42a.54.54,0,0,0-.57-.35c-.32,0-.55.16-.55.4h0c0,.18.14.29.45.37l.4.09c.5.12.74.34.74.72h0C152,24.66,151.54,25,150.94,25Zm1.89,0V21.26h.42V22.7h0a.78.78,0,0,1,.77-.44.86.86,0,0,1,.92,1v1.71h-.42v-1.6c0-.48-.2-.7-.62-.7a.67.67,0,0,0-.69.74v1.56Zm3.73,0v-3h0l-.89.65v-.46l.94-.68H157v3.53Zm2.86.08c-.65,0-1.33-.45-1.33-1.78h0c0-1.21.5-1.91,1.36-1.91a1.12,1.12,0,0,1,1.15.87v0h-.44v0a.71.71,0,0,0-.71-.48c-.64,0-.9.63-.93,1.36v.09h.05a1,1,0,0,1,.93-.55,1.14,1.14,0,0,1,1.16,1.18h0A1.18,1.18,0,0,1,159.42,25Zm-.8-1.22a.8.8,0,0,0,.79.83.8.8,0,0,0,.8-.81h0a.8.8,0,1,0-1.59,0ZM162.68,25c-.78,0-1.24-.71-1.24-1.84h0c0-1.13.46-1.84,1.24-1.84s1.25.71,1.25,1.84h0C163.93,24.31,163.46,25,162.68,25Zm0-.38c.51,0,.81-.56.81-1.46h0c0-.9-.3-1.45-.81-1.45s-.8.55-.8,1.45h0C161.88,24.08,162.18,24.64,162.68,24.64Zm3,1.18a3.62,3.62,0,0,1-.7-2.28,3.6,3.6,0,0,1,.7-2.28h.35a4.5,4.5,0,0,0,0,4.56Zm1.17,0V22.31h.42v.42h0a.88.88,0,0,1,.82-.47c.67,0,1.1.54,1.1,1.36h0c0,.83-.43,1.36-1.1,1.36a.9.9,0,0,1-.82-.46h0v1.3Zm1.18-1.21c.48,0,.77-.37.77-1h0c0-.61-.29-1-.77-1s-.77.37-.77,1h0C167.28,24.23,167.57,24.61,168.05,24.61Zm2,.33V21.26h.43v2.2h0l1.13-1.15h.52l-1.15,1.1,1.22,1.53h-.53l-1-1.24-.24.24v1Zm3.07.88h-.35a4.57,4.57,0,0,0,0-4.56h.35a3.6,3.6,0,0,1,.69,2.28A3.61,3.61,0,0,1,173.16,25.82Z" fill="#767676"/>
  <rect x="177.04" y="17.94" width="42" height="10" rx="2" fill="#fff"/>
  <path d="M181.54,24.94V21.41h2.18v.4H182v1.13h1.65v.39H182v1.21h1.74v.4Zm4.61.08c-1,0-1.62-.72-1.62-1.84h0a1.62,1.62,0,0,1,1.62-1.84c1,0,1.61.71,1.61,1.84h0a1.88,1.88,0,0,1-.62,1.53l.46.63h-.5l-.31-.44A1.66,1.66,0,0,1,186.15,25Zm0-.4a1.17,1.17,0,0,0,.38-.07l-.45-.62h.49l.31.42a1.52,1.52,0,0,0,.43-1.17h0c0-.88-.44-1.43-1.16-1.43s-1.17.55-1.17,1.43h0C185,24.05,185.41,24.62,186.15,24.62Zm3.92.4a1.27,1.27,0,0,1-1.4-1.29V21.41h.44V23.7a1,1,0,0,0,1.92,0V21.41h.44v2.32A1.27,1.27,0,0,1,190.07,25Zm2.09-.08,1.29-3.53h.44l1.3,3.53h-.46l-.36-1H193l-.35,1Zm1.49-3-.55,1.58h1.14L193.69,22Zm2.31,3V21.41h.44v3.13h1.69v.4Zm3.66,0-1.29-3.53h.46l1,3h0l1-3h.46l-1.3,3.53Zm2.51,0V21.41h2.18v.4h-1.75v1.13h1.66v.39h-1.66v1.21h1.75v.4Zm3.12,0V21.41h1.35a1,1,0,0,1,1.12,1.05h0a1,1,0,0,1-.71,1l.82,1.47h-.52l-.75-1.4h-.87v1.4Zm.44-1.79h.87a.63.63,0,0,0,.71-.67h0a.66.66,0,0,0-.73-.68h-.85Zm3,1.79V21.41h.44v3.53Zm1.49,0V21.41h2.14v.4h-1.7V23h1.56v.39H210.6v1.53Zm4,0V23.42l-1.25-2h.5l1,1.57h0l1-1.57h.5l-1.25,2v1.52Z" fill="#767676"/>
  <rect x="222.04" y="17.94" width="33" height="10" rx="2" fill="#fff"/>
  <path d="M227.24,25c-1,0-1.55-.71-1.55-1.84h0c0-1.13.59-1.84,1.55-1.84a1.39,1.39,0,0,1,1.43,1.14h-.45a1,1,0,0,0-1-.73c-.68,0-1.1.55-1.1,1.43h0c0,.88.42,1.44,1.1,1.44a1,1,0,0,0,1-.66h.45A1.35,1.35,0,0,1,227.24,25Zm2.31-.08V21.41H230v1.53h1.94V21.41h.44v3.53h-.44V23.33H230v1.61Zm3.87,0V21.41h2.18v.4h-1.75v1.13h1.66v.39h-1.66v1.21h1.75v.4ZM238,25c-1,0-1.55-.71-1.55-1.84h0c0-1.13.59-1.84,1.55-1.84a1.39,1.39,0,0,1,1.43,1.14h-.45a1,1,0,0,0-1-.73c-.68,0-1.1.55-1.1,1.43h0c0,.88.42,1.44,1.1,1.44a1,1,0,0,0,1-.66h.45A1.35,1.35,0,0,1,238,25Zm2.31-.08V21.41h.44v1.72h0l1.54-1.72h.56l-1.41,1.53,1.54,2h-.57l-1.28-1.7-.42.47v1.23Zm4.48.08c-.77,0-1.27-.4-1.32-1v0h.44v0c0,.35.4.58.91.58s.82-.25.82-.61h0c0-.3-.2-.5-.68-.6l-.39-.09c-.71-.16-1-.48-1-1h0c0-.59.51-1,1.24-1a1.13,1.13,0,0,1,1.23.94v0h-.44v0c0-.31-.34-.54-.8-.53s-.77.21-.77.58h0c0,.28.19.47.67.57L245,23c.73.17,1,.46,1,1h0C246.05,24.61,245.54,25,244.75,25Zm2.19-.08V21.41h.43v3.53Zm2.94.08c-1,0-1.59-.72-1.59-1.84h0a1.63,1.63,0,0,1,1.59-1.84,1.4,1.4,0,0,1,1.47,1.11v0h-.45v0a1,1,0,0,0-1-.7c-.7,0-1.14.56-1.14,1.43h0c0,.88.44,1.44,1.15,1.44a1,1,0,0,0,1.05-1v-.09h-1v-.38h1.43v.42A1.39,1.39,0,0,1,249.88,25Z" fill="#767676"/>
  <rect x="91.04" y="17.94" width="15" height="10" rx="2" fill="#fff"/>
  <path d="M93.59,24.94V21.41H94.8a1.57,1.57,0,0,1,1.66,1.76h0a1.56,1.56,0,0,1-1.66,1.76Zm.44-.4h.74A1.19,1.19,0,0,0,96,23.18h0a1.2,1.2,0,0,0-1.24-1.37H94Zm4.74.48a1.27,1.27,0,0,1-1.4-1.29V21.41h.44V23.7a1,1,0,0,0,1.92,0V21.41h.44v2.32A1.26,1.26,0,0,1,98.77,25Zm2.44-.08V21.41h1.33a1.08,1.08,0,0,1,1.13,1.13h0a1.09,1.09,0,0,1-1.13,1.14h-.89v1.26Zm1.22-3.14h-.78v1.49h.78a.7.7,0,0,0,.79-.74h0A.7.7,0,0,0,102.43,21.8Z" fill="#767676"/>
  <rect x="109.04" y="17.94" width="30" height="10" rx="2" fill="#fff"/>
  <path d="M112.73,24.94V21.41h.44v1.53h1.93V21.41h.44v3.53h-.44V23.33h-1.93v1.61Zm3.58,0,1.29-3.53H118l1.3,3.53h-.46l-.36-1h-1.4l-.35,1Zm1.49-3-.55,1.58h1.14L117.84,22Zm3.46,3c-.77,0-1.27-.4-1.32-1v0h.44v0c0,.35.4.58.91.58s.82-.25.82-.61h0c0-.3-.2-.5-.68-.6l-.39-.09c-.71-.16-1-.48-1-1h0c0-.59.51-1,1.24-1a1.13,1.13,0,0,1,1.23.94v0h-.44v0c0-.31-.34-.54-.8-.53s-.78.21-.78.58h0c0,.28.2.47.68.57l.39.09c.73.17,1,.46,1,1h0C122.56,24.61,122.05,25,121.26,25Zm2.18-.08V21.41h.44v1.53h1.94V21.41h.44v3.53h-.44V23.33h-1.94v1.61Zm4.67,0v-3h0l-.89.65v-.46l.93-.68h.44v3.53ZM131,25c-.64,0-1.32-.45-1.32-1.78h0c0-1.21.5-1.91,1.35-1.91a1.12,1.12,0,0,1,1.15.87v0h-.44v0a.72.72,0,0,0-.71-.48c-.64,0-.9.63-.93,1.36v.09h0a1,1,0,0,1,.94-.55,1.15,1.15,0,0,1,1.16,1.18h0A1.19,1.19,0,0,1,131,25Zm-.8-1.22a.8.8,0,1,0,1.59,0h0A.76.76,0,0,0,131,23a.78.78,0,0,0-.81.79ZM134.23,25c-.78,0-1.24-.71-1.24-1.84h0c0-1.13.46-1.84,1.24-1.84s1.25.71,1.25,1.84h0C135.48,24.31,135,25,134.23,25Zm0-.38c.51,0,.81-.56.81-1.46h0c0-.9-.3-1.45-.81-1.45s-.8.55-.8,1.45h0C133.43,24.08,133.73,24.64,134.23,24.64Z" fill="#767676"/>
  <path d="M15,23.94v8H84v-8" fill="none" stroke="#bfbfbf" stroke-linecap="round" stroke-linejoin="round" stroke-opacity="0.24"/>
  <path d="M87,23.94v8H259v-8" fill="none" stroke="#bfbfbf" stroke-linecap="round" stroke-linejoin="round" stroke-opacity="0.24"/>
</svg>
