<svg xmlns="http://www.w3.org/2000/svg" width="22.137" height="30.143" viewBox="0 0 22.137 30.143">
  <g id="lock" transform="translate(-0.265 -0.451)">
    <g id="lock-inner">
      <rect id="Rectangle_90" data-name="Rectangle 90" width="21.137" height="15.51" rx="1.5" transform="translate(0.765 14.584)" fill="none" stroke="#828282" stroke-width="1"/>
      <path id="Path_34" data-name="Path 34" d="M4.56,14.5H18.108V7.451a6.5,6.5,0,0,0-6.5-6.5H11.06a6.5,6.5,0,0,0-6.5,6.5Z" fill="none" stroke="#828282" stroke-width="1"/>
      <path id="Path_35" data-name="Path 35" d="M6.984,14.5h8.7V7.726a4.35,4.35,0,1,0-8.7,0Z" fill="none" stroke="#828282" stroke-width="1"/>
    </g>
    <path id="Path_36" data-name="Path 36" d="M4.954,20.207v4.26" fill="none" stroke="#fff" stroke-linecap="round" stroke-width="1"/>
    <path id="Path_37" data-name="Path 37" d="M2.824,22.338h4.26" fill="none" stroke="#fff" stroke-linecap="round" stroke-width="1"/>
    <path id="Path_38" data-name="Path 38" d="M6.46,20.832,3.448,23.844" fill="none" stroke="#fff" stroke-linecap="round" stroke-width="1"/>
    <path id="Path_39" data-name="Path 39" d="M3.448,20.832l3.012,3.012" fill="none" stroke="#fff" stroke-linecap="round" stroke-width="1"/>
    <path id="Path_40" data-name="Path 40" d="M11.333,20.207v4.26" fill="none" stroke="#fff" stroke-linecap="round" stroke-width="1"/>
    <path id="Path_41" data-name="Path 41" d="M9.2,22.338h4.26" fill="none" stroke="#fff" stroke-linecap="round" stroke-width="1"/>
    <path id="Path_42" data-name="Path 42" d="M12.839,20.832,9.827,23.844" fill="none" stroke="#fff" stroke-linecap="round" stroke-width="1"/>
    <path id="Path_43" data-name="Path 43" d="M9.827,20.832l3.012,3.012" fill="none" stroke="#fff" stroke-linecap="round" stroke-width="1"/>
    <path id="Path_44" data-name="Path 44" d="M17.712,20.207v4.26" fill="none" stroke="#fff" stroke-linecap="round" stroke-width="1"/>
    <path id="Path_45" data-name="Path 45" d="M15.582,22.338h4.26" fill="none" stroke="#fff" stroke-linecap="round" stroke-width="1"/>
    <path id="Path_46" data-name="Path 46" d="M19.218,20.832l-3.012,3.012" fill="none" stroke="#fff" stroke-linecap="round" stroke-width="1"/>
    <path id="Path_47" data-name="Path 47" d="M16.206,20.832l3.012,3.012" fill="none" stroke="#fff" stroke-linecap="round" stroke-width="1"/>
  </g>
</svg>
